<?xml version="1.0" encoding="utf-8"?>
<!-- Generator: Adobe Illustrator 24.0.3, SVG Export Plug-In . SVG Version: 6.00 Build 0)  -->
<svg version="1.1" id="team-15-20192020-light" xmlns="http://www.w3.org/2000/svg" xmlns:xlink="http://www.w3.org/1999/xlink"
	 x="0px" y="0px" viewBox="0 0 970 650" style="enable-background:new 0 0 970 650;" xml:space="preserve">
<style type="text/css">
	.st0{fill:#041E42;}
	.st1{fill:#FFFFFF;}
	.st2{fill:#C8102E;}
</style>
<path class="st0" d="M929,391.9c-8.3,0-15,6.7-15,15c0,8.3,6.7,15,15,15s15-6.7,15-15C944,398.6,937.3,391.9,929,391.9z M929,418.7
	c-6.5,0-11.8-5.3-11.8-11.8c0,0,0,0,0,0c0-6.5,5.3-11.8,11.8-11.8c6.5,0,11.8,5.3,11.8,11.8C940.8,413.4,935.5,418.7,929,418.7z
	 M935.2,403.5c0-2.8-2.3-5.1-5.1-5.1c0,0,0,0,0,0h-7.2v17.1h3.2v-7h2.3l3.2,7h3.6l-3.4-7.3C933.8,407.5,935.1,405.6,935.2,403.5
	L935.2,403.5z M930.1,405.3h-4v-3.7h4c1,0,1.9,0.8,1.9,1.9C931.9,404.5,931.1,405.3,930.1,405.3L930.1,405.3z"/>
<path class="st1" d="M210.2,420.8h68.7l-23.4,56.5h57.6l23.4-56.5h169.2l-4.9,11.9c-11.2,27.1-9.7,61.9,1.8,80.4l65.5,105l50.7-73.6
	h83.1l45.4-55.8H642.1l-31.7,39l-63.2-52.5c-1.4-1.3-3-8.2-0.4-14.5l28.8-69.5c0,0,6.1,29.6,44.5,29.6h228.2
	c10.8,0,43.8,0,56.6-30.7c11.6-28-5.7-43.3-5.7-43.3h18.2l20.8-50.1H826.4c-14.1,0-27.2,3.6-37.4,9.8l52.7-127.2h-57.6L726.3,319
	c0,0-10.3-22.2-44.2-22.2h-67.5L724.3,31.9h-57.6L557.1,296.7H416.3c-36.7,0-70.7,15.5-94.6,41.4c0,0-0.3-41.4-49.4-41.4H147.1
	c-50.1,0-101.7,29.9-117.5,68.1c-11.2,26.9,4.6,56,40.2,56h48.8c20.3,0,41.9-13.5,51.2-20.1C169.8,400.7,180.1,420.8,210.2,420.8
	L210.2,420.8z"/>
<g>
	<path class="st2" d="M648.7,502.5l-22.8,28h69.4l22.8-28H648.7z M264.9,224.9l19.9-14.5l19.9,14.5l-7.6-23.4l19.9-14.5h-24.6
		l-7.6-23.4l-7.6,23.4h-24.6l19.9,14.5L264.9,224.9z M394,224.9l19.9-14.5l19.9,14.5l-7.6-23.4l19.9-14.5h-24.6l-7.6-23.4l-7.6,23.4
		h-24.6l19.9,14.5L394,224.9z M550.6,187l-7.6-23.4l-7.6,23.4h-24.6l19.9,14.5l-7.6,23.4l19.9-14.5l19.9,14.5l-7.6-23.4l19.9-14.5
		L550.6,187z M215.9,255.8L215.9,255.8l-1.4,23.2h8l22.4-29.1h-6.5l-17,22.8h-0.1l1.6-22.8h-8.2l-17,22.8h-0.1l1.7-22.8h-7
		l-1.7,29.1h7.9L215.9,255.8z M262.1,272.5l0.6,6.5h7.7l-2.8-29.1h-8.2l-26.9,29.1h7l5.8-6.5H262.1L262.1,272.5z M260.9,255.1
		l0.8,12.7h-12.1L260.9,255.1L260.9,255.1z M278,269.9c-2.6,6.3,1.2,9.9,9.6,9.9c9.9,0,16.5-3.5,19-9.6c5.3-12.8-18.8-5.3-15.7-12.8
		c1.1-2.7,4.6-4,7.4-4c4.5,0,6.6,1.4,5.2,5.2h6.5c2.2-5.9-0.9-9.5-9.4-9.5c-6.8,0-14.2,2.7-17,9.4c-4.9,11.7,18.5,6,15.8,12.5
		c-0.9,2.1-3.8,4.4-9.2,4.4c-5.2,0-6.8-2.1-5.8-5.6H278L278,269.9z M316.2,279.1l5.2-12.5h15.9l-5.2,12.5h6.5l12.1-29.1h-6.5
		l-4.9,11.9h-15.8l4.9-11.9h-6.5l-12.1,29.1H316.2z M354,279.1l12.1-29.1h-6.5l-12.1,29.1H354z M368.9,279.1l9.4-22.7h0.1l7.5,22.7
		h8.8l12.1-29.1h-5.9l-9.3,22.3h-0.1l-7.2-22.3H375L363,279.1H368.9z M443.1,259.3c2.8-6.8-2.4-10.2-11.2-10.2
		c-11.5,0-20.3,6.5-24,15.2c-4.4,10.6,1,15.4,11.9,15.4c4.2,0,10.9-0.8,15.8-2.6l5.6-13.6h-15.7l-1.9,4.5h9.3l-2.3,5.6
		c-3.6,1-6,1.3-8.5,1.3c-8.9,0-9.7-5.3-7.4-10.7c3.1-7.6,10.1-10.7,16.2-10.7c3.2,0,6.8,1.6,5.3,5.6L443.1,259.3L443.1,259.3z
		 M451.1,279.1h6.5l10.1-24.4h11.1l2-4.8h-28.7l-2,4.8h11.1L451.1,279.1z M489.1,279.8c10.7,0,19.1-5.1,23.3-15.3
		c4.2-10.2,0.1-15.3-10.6-15.3c-10.7,0-19.1,5.1-23.3,15.3C474.3,274.7,478.4,279.8,489.1,279.8L489.1,279.8z M485.3,264.5
		c2.8-6.9,8.3-10.6,14.6-10.6c6.3,0,8.7,3.7,5.8,10.6c-2.8,6.9-8.3,10.6-14.6,10.6C484.8,275.1,482.4,271.4,485.3,264.5L485.3,264.5
		z M542.3,272.3L542.3,272.3l-7.3-22.3h-9.2l-12.1,29.1h5.9l9.4-22.7h0.1l7.5,22.7h8.8l12.1-29.1h-5.9L542.3,272.3z"/>
</g>
<g>
	<path class="st0" d="M138.9,332.9h36.4l9.2-22.3h-37.5c-44.2,0-91.1,26.6-104.7,59.5c-8.2,19.9,3.9,36.8,27.4,36.8h48.8
		c21.2,0,47-20.4,47-20.4l-22.8-9.6c0,0-10.3,7.7-21.6,7.7H74.5c-5.9,0-8.3-5.6-5.2-13.1C78.1,350.2,109.3,332.9,138.9,332.9
		L138.9,332.9z M210.2,406.9h28.3c10.2,0,18.9-5.9,18.9-5.9l-2.4,5.9h27.5l22.5-54.4c9.6-23.2-5-41.9-32.6-41.9h-71.5l-9.2,22.3H269
		c16.5,0,11.5,12.1,11.5,12.1h-55.8c-22.2,0-38.5,10.2-43.7,22.8C172.1,389.4,185.2,406.9,210.2,406.9L210.2,406.9z M205.2,376
		c2-4.8,7.4-8.6,12.2-8.6H256c8.8,0,16.7-3.4,16.7-3.4l-4.5,10.9c-2.2,5.4-9.9,9.7-16,9.7h-42C205.4,384.6,203.2,380.8,205.2,376
		L205.2,376z M601.3,310.6l-9.2,22.3h86.7c16.5,0,11.5,12.1,11.5,12.1h-55.8c-22.2,0-38.5,10.2-43.7,22.8c-8.9,21.5,4.1,39,29.2,39
		h28.3c10.2,0,18.9-5.9,18.9-5.9l-2.5,5.9h27.5l22.5-54.4c9.6-23.2-5-41.9-32.6-41.9L601.3,310.6L601.3,310.6z M677.9,374.9
		c-2.2,5.4-9.9,9.7-16,9.7h-42c-4.8,0-7-3.9-5.1-8.6c2-4.8,7.4-8.6,12.2-8.6h38.6c8.8,0,16.7-3.4,16.7-3.4L677.9,374.9L677.9,374.9z
		 M732.4,406.9l88.5-213.8h-27.5l-88.5,213.8H732.4z M523.4,310.6h-27.5l-9.2,22.3h27.5L523.4,310.6z M483.5,406.9l25.6-61.9h-27.5
		L456,406.9L483.5,406.9z M782.7,332.8c-8.5,20.5,2.5,37.1,24.7,37.1h55.8c4.1,0,6,3.3,4.3,7.4c-1.7,4.1-6.3,7.4-10.4,7.4H755
		l-9.2,22.3h102.5c19.1,0,36.4-4.4,43.7-22.1c8.5-20.5-2.5-37.2-24.7-37.2h-55.8c-4.1,0-6-3.3-4.3-7.4c1.7-4.1,6.3-7.4,10.4-7.4H908
		l9.2-22.3h-90.8C807.4,310.6,788.5,318.8,782.7,332.8z M303.8,463.4l32-77.2c12.2-29.5,39.1-53.3,81.6-53.3h27.3l-17.3,41.7
		c-2.3,5.5-8.6,10-14.1,10h-63.6l-9.2,22.3h76.1c13.7,0,27.6-6.3,35.3-25l29.5-71.3h-65.1c-51.1,0-89.9,31.8-106.2,71l-33.9,81.8
		H303.8z"/>
	<path class="st0" d="M513.6,438c-9.1,22-8.7,52.5,0.8,67.7l54.3,87l35.8-51.9l-66.1-55c-7-5.8-8.9-19.5-4.4-30.5L703.5,45.8H676
		L566.4,310.6h-32.6l-9.2,22.3h32.6L513.6,438L513.6,438z"/>
</g>
</svg>
