<?xml version="1.0" encoding="utf-8"?>
<!-- Generator: Adobe Illustrator 24.0.3, SVG Export Plug-In . SVG Version: 6.00 Build 0)  -->
<svg version="1.1" id="team-14-20192020-light" xmlns="http://www.w3.org/2000/svg" xmlns:xlink="http://www.w3.org/1999/xlink"
	 x="0px" y="0px" viewBox="0 0 970 650" style="enable-background:new 0 0 970 650;" xml:space="preserve">
<style type="text/css">
	.st0{fill:#00205B;}
</style>
<g>
	<path class="st0" d="M712.2,513.4c-8.3,0-15,6.7-15,15c0,8.3,6.7,15,15,15c8.3,0,15-6.7,15-15C727.2,520.1,720.5,513.4,712.2,513.4
		L712.2,513.4z M712.2,540.2c-6.5,0-11.8-5.3-11.8-11.8c0,0,0,0,0,0c0-6.5,5.3-11.8,11.8-11.8c6.5,0,11.8,5.3,11.8,11.8
		C724,534.9,718.7,540.2,712.2,540.2z M718.4,525c0-2.8-2.3-5.1-5.1-5.1c0,0,0,0,0,0H706V537h3.2v-7h2.3l3.2,7h3.6l-3.4-7.3
		C717,529,718.4,527.1,718.4,525L718.4,525z M713.3,526.8h-4v-3.7h4c1,0,1.9,0.8,1.9,1.9C715.1,526,714.3,526.8,713.3,526.8
		L713.3,526.8z"/>
	<path class="st0" d="M828,294.4c0-69.6-43.2-138.1-120-180.3l-29.4,23.3c52.5,33,83.3,82.3,83.3,138.3c0,130.6-161.4,249-341.1,249
		c-18.4,0-36.5-1.3-54-3.9l-60.6,44.9c38.3,13,81,19.8,125.7,19.8C645.1,585.5,828,441.5,828,294.4"/>
	<path class="st0" d="M556.7,343L447,364.5l243.4-200l-113.3,15.2L797.3,5L540.9,72.5c-3.4-0.1-6.8-0.1-10.2-0.1
		C320.6,72.3,142,215.1,142,365.8c0,73.9,39.8,132.7,101.5,170.8L148.8,645L556.7,343z M171.3,343.5c0-135.1,169.1-249,341.1-249
		c1.2,0,2.4,0,3.5,0L349.6,280.7l95.7-15.1L256.8,447.8l76.4-13.8l-53.4,61.1C215,464.4,171.3,411.4,171.3,343.5"/>
</g>
</svg>
