<?xml version="1.0" encoding="utf-8"?>
<!-- Generator: Adobe Illustrator 24.0.3, SVG Export Plug-In . SVG Version: 6.00 Build 0)  -->
<svg version="1.1" id="team-20-20192020-light" xmlns="http://www.w3.org/2000/svg" xmlns:xlink="http://www.w3.org/1999/xlink"
	 x="0px" y="0px" viewBox="0 0 970 650" style="enable-background:new 0 0 970 650;" xml:space="preserve">
<style type="text/css">
	.st0{fill:#010101;}
	.st1{fill:none;}
	.st2{fill:#F1BE48;}
	.st3{fill:#C8102E;}
</style>
<path class="st0" d="M430,576.1c-8.3,0-15,6.7-15,15c0,8.3,6.7,15,15,15s15-6.7,15-15C445,582.8,438.3,576.1,430,576.1L430,576.1z
	 M430,602.8c-6.5,0-11.8-5.3-11.8-11.8c0,0,0,0,0,0c0-6.5,5.3-11.8,11.8-11.8c6.5,0,11.8,5.3,11.8,11.8
	C441.7,597.6,436.5,602.8,430,602.8z M436.1,587.6c0-2.8-2.3-5.1-5.1-5.1c0,0,0,0,0,0h-7.2v17.1h3.2v-7h2.3l3.2,7h3.6l-3.4-7.3
	C434.8,591.6,436.1,589.7,436.1,587.6L436.1,587.6z M431,589.5h-4v-3.7h4c1,0,1.9,0.8,1.9,1.9C432.9,588.6,432.1,589.5,431,589.5
	L431,589.5z"/>
<path class="st1" d="M787.6,110.7C750.6,61.9,691.8,35,622,35c-53.9,0-97.8,21.8-133.1,39.3c-21.5,10.7-40,19.9-53.5,19.9
	c-8.5,0-21.8-16.3-28.5-27.8l-2.6-4.4l-4.4,2.5c-17.5,10.1-22.7,26.1-23.3,37.8c-19.8-8.1-44.5-8.4-47.8-8.4
	c-30.2,0.2-56.6,19-57.7,19.8c-14.3,10.4-21.4,22.8-23.9,27.9c-19.5,6.6-39,24.9-40,25.8c-4.6,4.7-6.6,6.3-6.6,6.3
	c-11.4,8.6-26.9,9.3-27,9.3l-5.4,0.2l0.5,5.4c1.5,14.5,9.2,28.7,9.7,29.7c8.6,12.9,21.3,19.5,30.1,22.7c-5.2,3.8-13.1,8.6-23.2,11.6
	c-14.5,4.4-35.2,7.7-35.4,7.8l-4.9,0.8l0.6,4.9c0.7,5.8,3.2,10.2,3.5,10.8c20.5,33.5,64.3,35.2,72.9,35.2c0.5,0,1,0,1.2,0
	c3.7,0.4,9.1,0.2,13.6-0.2c-4.5,10.4-8.2,23.9-8.8,26c-2.4,10.3-7.3,14.2-7.6,14.5c-6.2,5-23.4,15.3-23.6,15.4l-4.9,2.9l3.5,4.6
	c6.7,8.8,20.3,13.6,27.1,15.6c0.7,10.3,3,21.9,4.6,29.4c-3.7-0.5-7.5-0.7-11.3-0.8c-16.9,0-26,5.4-26.4,5.7l-5.9,3.6l5.2,4.6
	c7.3,6.4,12.9,15.1,13,15.2l0.4,0.5c8.4,10.1,10.3,31.1,10.3,31.2c2.4,32.1,13.1,51.5,17.7,58.4c7,10.6,20.3,20.5,20.6,20.7
	c9.8,8.3,27,12.2,27.5,12.3c1.3,0.4,2.7,0.7,4.1,0.9c-4.1,1.8-7.9,3.4-10.1,4.2l-5.1,2l2.3,4.9c6.2,13.3,22.5,21,25,22.1
	c14.6,8.1,38,9.2,38.9,9.2l0.1,0h0.1c27.3-0.2,49.2-21.4,50-22.1c22.7-20.6,35-25.7,55-24.2c12.1,0.9,23,5.6,35.7,11
	c19.7,8.4,44.1,18.9,83.1,18.9c126.8,0,233.4-121.8,249.9-231.2l0.9-5.9l-179.1,0l-1.1,3.7c-0.2,0.6-17.2,58.3-56.1,58.3
	c-30.7,0-49.8-24.9-49.8-64.9c0-52.9,45.5-150.6,110.3-150.6c7.6,0,13,2.4,16.6,7.5c7.8,10.8,6.9,34.3-2.3,61.4l-2.3,6.7l171.2-0.1
	l1-3.7C833.8,219.1,823.2,157.5,787.6,110.7L787.6,110.7z M290.9,387.7c-4.5-1.3-8.6-3.6-12.1-6.8c1.9-1.7,3.5-3.7,5-5.5
	c1.2-1.4,2.9-3.6,3.6-3.9c0.5-0.1,0.8-0.1,0.9-0.1c0.4,0.3,1.2,1.2,1.9,1.9c3,3.2,8,8.6,20,14.6c0.8,0.4,1.5,0.7,2.1,1
	C305.5,390.6,299.8,390.2,290.9,387.7L290.9,387.7z"/>
<path class="st0" d="M812,278.3c33.6-120.2-45.4-238.2-190-238.2c-87.1,0-149.4,59.2-186.6,59.2c-15.3,0-32.9-30.3-32.9-30.3
	c-25.8,14.9-20.2,41.8-20.2,41.8c-20.2-11.9-53.3-11.7-53.3-11.7c-28.9,0.2-54.7,18.8-54.7,18.8c-17,12.5-23.2,27.9-23.2,27.9
	c-19.2,5.6-40.1,25.2-40.1,25.2c-5.1,5.2-7.1,6.7-7.1,6.7c-12.9,9.7-29.9,10.3-29.9,10.3c1.4,13.7,8.9,27.4,8.9,27.4
	c12.9,19.4,36.5,23.2,36.5,23.2s-12,12.6-32.3,18.8c-15,4.6-36.1,7.9-36.1,7.9c0.6,5,2.8,8.7,2.8,8.7c21.2,34.7,70,32.7,70,32.7
	c8.3,1,22.4-1.4,22.4-1.4c-5.9,8.3-12.9,33.5-12.9,33.5c-3,12.5-9.3,17.2-9.3,17.2c-6.6,5.3-24.2,15.9-24.2,15.9
	c7.7,10.1,28,14.7,28,14.7c0.4,16.5,6.4,39.7,6.4,39.7c-27.5-5.8-41.8,2.9-41.8,2.9c7.9,6.9,13.9,16.3,13.9,16.3
	c9.5,11.5,11.5,34.1,11.5,34.1c2,27,10.3,46,16.8,55.9c6.6,9.9,19.6,19.6,19.6,19.6c8.9,7.6,25.6,11.3,25.6,11.3
	c11.5,3.2,22.5,0.8,22.5,0.8c-7.4,6.1-28,14.1-28,14.1c5.8,12.5,22.6,19.6,22.6,19.6c13.7,7.8,36.9,8.7,36.9,8.7
	c25.6-0.2,46.6-20.8,46.6-20.8c22.5-20.4,36.5-27.2,58.8-25.5c32.7,2.5,55.6,29.8,118.4,29.8c126.7,0,228.9-121.3,244.8-226.9H633.1
	c0,0-17.7,62-61,62c-33,0-54.9-26.7-54.9-70c0-56.7,47.3-155.7,115.4-155.7c31.9,0,31.7,38.6,19.2,75.6L812,278.3L812,278.3z
	 M289.5,392.6c-12.8-3.7-18.6-12.9-18.6-12.9c6.9-2,10.3-12,15.3-13.1c8.1-1.9,4.8,6,26.2,16.7c7.9,3.7,8.9,4,15,5.2
	C312.7,395.8,303.7,396.7,289.5,392.6L289.5,392.6z"/>
<path class="st2" d="M622.3,46.7c-81.1,0-146.1,58.2-185.3,60c-16.4,0.7-36.1-27-36.1-27c-22.2,16.6-6,47.2-6,47.2
	c-32.9-24.2-69.8-20.4-69.8-20.4c-55.1,5.3-68.6,45-68.6,45c-32.1,11.9-43.2,28.9-43.2,28.9c-19.8,14.3-31.3,12.9-31.3,12.9
	c7.6,41.4,50.8,39.5,50.8,39.5c-17.1,32.9-72.6,38.1-72.6,38.1c19.8,31.7,67,29,67,29c16.1,1.7,38.1-7,48.9-11.9
	c-7.2,3.8-10.6,6.8-10.6,6.8c-20.8,14.6-20.4,41.4-31.1,60.4c-4.1,8.5-16.1,12.6-22.7,17.9c7.2,3.6,15.3,6.6,23.1,8
	c-0.2,13.3,6.2,45.4,10.5,58.3c-15.5-11.5-39.5-6.3-39.5-6.3c26.6,33.1,14.1,53.5,27.4,84.3c4.5,15.2,18.4,28.3,32.4,37.6
	c36.2,16.3,61.2-5.1,61.2-5.1c-4.1,20-41.8,35.1-41.8,35.1c8.8,9.7,30.5,16.9,43.4,17.8c51.1,3.4,53.8-52.3,110.5-46.5
	c32.9,3.4,63,31,117.9,31c137.2,0,226.4-138.9,237.2-213.7H638.3c0,0-19.1,62.4-65.3,62.4c-47.9,0-63-41.1-63-78.1
	c0-56.3,46.7-162.6,123-162.6c35.9,0,41.5,39.4,28.8,76.3h144.8C835.8,145.4,749.4,46.7,622.3,46.7L622.3,46.7z M283.9,359
	c12.7-3.9,16.7,14.1,41,21.8c6.9,3.5,11.1,4.1,18.2,7.5c-16.8,10.6-32.4,17.5-54.4,11.2c-12.5-2.5-18.8-10.2-26.6-20.1l-1-1.7
	C270.4,374.7,275.8,364.1,283.9,359L283.9,359z"/>
<g>
	<path class="st3" d="M262.6,212.4c17.1-3.3,28.4-20.7,46-23.1c9.9-2.5,19.9,1.6,28.4,3c-0.3-0.8-1.4-1.1-1.4-1.9
		c-18.2-21.2-47.1-33.9-75.5-23.4c-23.7,4.4-36.4,31.7-60.7,34.5c-0.3,0.8,1.1,1.4,1.1,2.2C215.5,220.7,243.6,219.6,262.6,212.4
		L262.6,212.4z M364.9,497.8v-1.1c-29.8-11-51.5,21.5-80.8,4.7c-25.9-8.5-26.2-44.1-52.4-52.6c2.2,6.6,5.3,12.7,6.3,19.6
		c1.4,28.7,9.1,59.8,35,73.9c10.8,5.8,26.2,5.8,37.2,0.6C331.6,531.7,341.8,506.3,364.9,497.8L364.9,497.8z"/>
	<path class="st3" d="M622.5,61.7c-75.7-0.4-138,60.2-187.2,60.2c-12.5,0-23.1-7.6-30.4-17c2.2,27,27.3,49.6,51.3,58.7
		c-12.1,0.8-22.6-3.9-33.4-6.4c-32.3-8.8-55.2-39.7-92.1-36.7c-25.9-0.8-48.8,14.9-61.5,36.4c6.3-5.8,13.8-9.4,21.8-11
		c19-3.3,35.5,5.2,48,18.2c15.4,24.5,32.5,48.2,57.9,65.3c-18.2,0-34.2-6.9-50.2-12.4c-32.8-9.4-71.7-5.3-96.5,18.2
		c-12.7,20.7-33.9,37.5-57.3,42.5v0.8l6.9,3c27,11.6,56.8,0.3,79.4-13.8c15.7-5,34.5-2.2,45.5,10.2c7.7,13.2,22.1,26.5,34.7,36.1
		c-3.3,1.4-6.6-1.4-10.5-1.4c-21.8-10.7-54.6-25.4-76.6-5.2c-20.7,15.7-10.2,46-32.3,60.9c15.4,1.4,24.3-9.9,33.1-21
		c22.1-16.3,36.1,13,53.8,19.8c18.8,9.1,43.6,6.1,57.1,25.4c-14.4,2.8-29,5.2-41.4,12.7c-19,11.8-46.9,13.8-67.5,3.9
		c-10.7-5.8-18.2-13.8-25.3-23.7c0,0.3,0,0.8-0.3,1.1c1.4,40.8,16.5,85.2,58.7,99.5c28.7,13.2,59.5-8.3,87.7,5.5
		c-14.9,3.3-28.7,11.3-37.5,24.3c-14.6,19-14.3,45.2-32.5,61.5c-3.3,3-8.3,4.7-11.6,7.2c3.6,1.7,7.2,2.5,11.3,3
		c20.1,3.3,37.2-9.7,48.5-24.8c16.3-15.7,41-25.3,60.7-24c39.7,2.7,69.4,31.5,121.8,31.7c104.5,0.4,196.7-99.2,216.3-180.8H649.5
		c0,0-22.4,62.4-76.7,62.4c-67.7,0-79.6-63.3-79.6-94.7c0-73.7,57.8-179.2,139.5-179.2c38.8,0,61.6,39.6,49,77.3h111.4
		C813.5,164.8,746.5,62.3,622.5,61.7L622.5,61.7z"/>
</g>
</svg>
